{"title":"30 Beats 2012 VODRip XviD HS","uid":7504294,"size":1373692684,"categoryP":"video","categoryS":"movies","magnet":"?xt=urn:btih:cbb418bff6d333feecca570d895b6a9d27d831fc&amp;dn=30+Beats+2012+VODRip+XviD+HS&amp;tr=udp%3A%2F%2Ftracker.openbittorrent.com%3A80&amp;tr=udp%3A%2F%2Fopen.demonii.com%3A1337&amp;tr=udp%3A%2F%2Ftracker.coppersurfer.tk%3A6969&amp;tr=udp%3A%2F%2Fexodus.desync.com%3A6969","seeders":1,"leechers":0,"uploader":"Hackulus","files":-1,"time":1344118660,"description":"30 Beats 2012 VODRip XviD HS\n\n\n &lt;a href=&quot;\nhttp://www.imdb.com/title/tt1484521/&quot; rel=&quot;nofollow&quot; target=&quot;_NEW&quot;&gt;\nhttp://www.imdb.com/title/tt1484521/&lt;/a&gt;\n\nFormat                                   : AVI\nFormat/Info                              : Audio Video Interleave\nFormat profile                           : OpenDML\nFile size                                : 1.28 GiB\nDuration                                 : 1h 28mn\nOverall bit rate                         : 2 070 Kbps\nWriting application                      : Lavf52.103.0\n\nVideo\nID                                       : 1\nFormat                                   : MPEG-4 Visual\nFormat profile                           : Simple@L1\nFormat settings, BVOP                    : No\nFormat settings, QPel                    : No\nFormat settings, GMC                     : No warppoints\nFormat settings, Matrix                  : Default (H.263)\nCodec ID                                 : XVID\nDuration                                 : 1h 28mn\nBit rate                                 : 1 928 Kbps\nWidth                                    : 720 pixels\nHeight                                   : 404 pixels\nDisplay aspect ratio                     : 16:9\nFrame rate                               : 23.976 fps\nColor space                              : YUV\nChroma subsampling                       : 4:2:0\nBit depth                                : 8 bits\nScan type                                : Progressive\nCompression mode                         : Lossy\nBits/(Pixel*Frame)                       : 0.276\nStream size                              : 1.19 GiB (93%)\nWriting library                          : Lavc52.116.0\n\nAudio\nID                                       : 0\nFormat                                   : MPEG Audio\nFormat version                           : Version 1\nFormat profile                           : Layer 3\nMode                                     : Joint stereo\nMode extension                           : MS Stereo\nCodec ID                                 : 55\nCodec ID/Hint                            : MP3\nDuration                                 : 1h 28mn\nBit rate mode                            : Constant\nBit rate                                 : 128 Kbps\nChannel(s)                               : 2 channels\nSampling rate                            : 44.1 KHz\nCompression mode                         : Lossy\nStream size                              : 81.0 MiB (6%)\nAlignment                                : Aligned on interleaves\nInterleave, duration                     : 42 ms (1.00 video frame)\nWriting library                          : LAME3.98.4","torrent":{"xt":"urn:btih:cbb418bff6d333feecca570d895b6a9d27d831fc","amp;dn":"30+Beats+2012+VODRip+XviD+HS","amp;tr":["udp%3A%2F%2Ftracker.openbittorrent.com%3A80","udp%3A%2F%2Fopen.demonii.com%3A1337","udp%3A%2F%2Ftracker.coppersurfer.tk%3A6969","udp%3A%2F%2Fexodus.desync.com%3A6969"],"infoHash":"cbb418bff6d333feecca570d895b6a9d27d831fc","infoHashBuffer":{"type":"Buffer","data":[203,180,24,191,246,211,51,254,236,202,87,13,137,91,106,157,39,216,49,252]},"announce":[],"urlList":[]}}